<svg xmlns="http://www.w3.org/2000/svg" viewBox="0 0 16 16">
  <defs>
    <style>.canvas{fill: none; opacity: 0;}.light-defaultgrey-10{fill: #212121; opacity: 0.1;}.light-defaultgrey{fill: #212121; opacity: 1;}</style>
  </defs>
  <title>CPPHeaderFile</title>
  <g id="canvas" class="canvas">
    <path class="canvas" d="M16,16H0V0H16Z" />
  </g>
  <g id="level-1">
    <path class="light-defaultgrey-10" d="M2.5,13.5V1.5h7l3,3v9Z" />
    <path class="light-defaultgrey" d="M12.854,4.146l-3-3L9.5,1h-7L2,1.5v12l.5.5h10l.5-.5v-9ZM3,13V2H9V5h3v8Z" />
    <path class="light-defaultgrey" d="M8.607,7.962A2.015,2.015,0,0,1,9,9.3V12H8V9.514a1.6,1.6,0,0,0-.237-.9.757.757,0,0,0-.677-.305,1,1,0,0,0-.454.1,1.045,1.045,0,0,0-.336.261,1.135,1.135,0,0,0-.208.375A1.441,1.441,0,0,0,6,9.487V12H5V5.5H6V8.3h.036a2.035,2.035,0,0,1,.258-.326,1.532,1.532,0,0,1,.322-.249,1.649,1.649,0,0,1,.39-.161A1.754,1.754,0,0,1,7.474,7.5,1.408,1.408,0,0,1,8.607,7.962Z" />
  </g>
</svg>
