<svg xmlns="http://www.w3.org/2000/svg" viewBox="0 0 16 16">
  <defs>
    <style>.canvas{fill: none; opacity: 0;}.light-defaultgrey-10{fill: #212121; opacity: 0.1;}.light-defaultgrey{fill: #212121; opacity: 1;}.cls-1{opacity:0.75;}</style>
  </defs>
  <title>HiddenFile</title>
  <g id="canvas">
    <path class="canvas" d="M16,16H0V0H16Z" />
  </g>
  <g id="level-1">
    <g class="cls-1">
      <path class="light-defaultgrey-10" d="M10,1l4,4v9H3V1Z" />
      <path class="light-defaultgrey" d="M6,2H5V1H6ZM8,2H7V1H8Zm6,4H13V5h1ZM10,6H9V5h1Zm0-2H9V3h1ZM4,2H3V1H4ZM14,8H13V7h1Zm0,2H13V9h1Zm0,2H13V11h1ZM4,4H3V3H4ZM4,6H3V5H4ZM4,8H3V7H4Zm0,2H3V9H4Zm0,2H3V11H4Zm4,2H7V13H8Zm2,0H9V13h1Zm2,0H11V13h1ZM4,14H3V13H4Zm2,0H5V13H6Zm8,0H13V13h1ZM10,2H9V1h1Zm2,4H11V5h1Zm0-2H11V3h1Z" />
    </g>
  </g>
</svg>
