<svg xmlns="http://www.w3.org/2000/svg" viewBox="0 0 16 16">
  <defs>
    <style>.canvas{fill: none; opacity: 0;}.light-defaultgrey-10{fill: #212121; opacity: 0.1;}.light-defaultgrey{fill: #212121; opacity: 1;}.light-orange{fill: #b73d18; opacity: 1;}.cls-1{opacity:0.75;}</style>
  </defs>
  <title>JSProjectNode</title>
  <g id="canvas" class="canvas">
    <path class="canvas" d="M16,16H0V0H16Zm0,0H0V0H16Z" />
  </g>
  <g id="level-1">
    <g class="cls-1">
      <path class="light-defaultgrey-10" d="M14.5,2.5v11H1.5V2.5Z" />
      <path class="light-defaultgrey" d="M14.5,2H1.5L1,2.5v11l.5.5h13l.5-.5V2.5ZM14,13H2V3H14Z" />
    </g>
    <path class="light-orange" d="M6.846,8.812a2.332,2.332,0,0,1-.51,1.605,1.73,1.73,0,0,1-1.36.573,1.929,1.929,0,0,1-.652-.093V9.99a1.034,1.034,0,0,0,.595.158q.963,0,.964-1.49V5.087h.963Z" />
    <path class="light-orange" d="M8.284,10.662V9.67a1.535,1.535,0,0,0,.318.219,2.465,2.465,0,0,0,.39.164,3.116,3.116,0,0,0,.413.1,2.236,2.236,0,0,0,.381.036,1.622,1.622,0,0,0,.9-.2.667.667,0,0,0,.3-.587.639.639,0,0,0-.1-.358,1.048,1.048,0,0,0-.278-.278,2.92,2.92,0,0,0-.419-.241c-.16-.077-.331-.157-.516-.241-.2-.105-.38-.212-.55-.32a2.349,2.349,0,0,1-.444-.358,1.505,1.505,0,0,1-.295-.443,1.456,1.456,0,0,1-.107-.579,1.329,1.329,0,0,1,.184-.71,1.561,1.561,0,0,1,.486-.5,2.2,2.2,0,0,1,.686-.292,3.281,3.281,0,0,1,.785-.095,3.183,3.183,0,0,1,1.328.206v.952a2.117,2.117,0,0,0-1.271-.356,2.27,2.27,0,0,0-.427.04,1.245,1.245,0,0,0-.381.134A.84.84,0,0,0,9.4,6.2a.583.583,0,0,0-.105.353.658.658,0,0,0,.081.336.881.881,0,0,0,.237.259,2.366,2.366,0,0,0,.38.228q.225.112.52.241c.2.106.394.216.573.332a2.763,2.763,0,0,1,.474.385,1.7,1.7,0,0,1,.324.467A1.373,1.373,0,0,1,12,9.391a1.462,1.462,0,0,1-.178.745,1.444,1.444,0,0,1-.48.494,2.159,2.159,0,0,1-.694.275,3.9,3.9,0,0,1-.83.085c-.1,0-.217-.008-.358-.022s-.288-.037-.435-.065a3.99,3.99,0,0,1-.421-.1A1.353,1.353,0,0,1,8.284,10.662Z" />
  </g>
</svg>
