<svg xmlns="http://www.w3.org/2000/svg" viewBox="0 0 16 16">
  <defs>
    <style>.canvas{fill: none; opacity: 0;}.light-orange{fill: #b73d18; opacity: 1;}</style>
  </defs>
  <title>IconLightJSScript</title>
  <g id="canvas" class="canvas">
    <path class="canvas" d="M0,0H16V16H0Z" />
  </g>
  <g id="level-1">
    <path class="light-orange" d="M6.469,9.07a3.091,3.091,0,0,1-.677,2.13,2.3,2.3,0,0,1-1.8.76,2.571,2.571,0,0,1-.865-.123v-1.2a1.382,1.382,0,0,0,.79.209q1.278,0,1.278-1.977V4.129H6.469Zm1.477,2.454V10.209a2.048,2.048,0,0,0,.422.29,3.366,3.366,0,0,0,.518.218,4.39,4.39,0,0,0,.548.137,2.938,2.938,0,0,0,.505.047,2.154,2.154,0,0,0,1.2-.267.885.885,0,0,0,.4-.779.858.858,0,0,0-.131-.476,1.4,1.4,0,0,0-.368-.368,3.987,3.987,0,0,0-.556-.32c-.213-.1-.441-.208-.685-.319q-.392-.21-.731-.424a3.154,3.154,0,0,1-.588-.475,2,2,0,0,1-.392-.589,1.911,1.911,0,0,1-.142-.768,1.769,1.769,0,0,1,.244-.942,2.066,2.066,0,0,1,.645-.661,2.945,2.945,0,0,1,.91-.387A4.338,4.338,0,0,1,10.782,4a4.2,4.2,0,0,1,1.762.274V5.536a2.815,2.815,0,0,0-1.687-.473,3,3,0,0,0-.566.054,1.7,1.7,0,0,0-.505.177,1.106,1.106,0,0,0-.363.317.779.779,0,0,0-.139.468.875.875,0,0,0,.107.445,1.138,1.138,0,0,0,.315.344,3.175,3.175,0,0,0,.5.3q.3.149.69.319c.269.14.522.286.761.441a3.637,3.637,0,0,1,.628.51,2.214,2.214,0,0,1,.429.621,1.812,1.812,0,0,1,.159.776,1.929,1.929,0,0,1-.236.988,1.9,1.9,0,0,1-.637.654,2.82,2.82,0,0,1-.921.366,5.137,5.137,0,0,1-1.1.113c-.129,0-.287-.01-.476-.029s-.38-.049-.577-.086a5.555,5.555,0,0,1-.558-.137A1.786,1.786,0,0,1,7.946,11.524Z" />
  </g>
</svg>
