<svg xmlns="http://www.w3.org/2000/svg" viewBox="0 0 16 16">
  <defs>
    <style>.canvas{fill: none; opacity: 0;}.light-lightblue{fill: #0077a0; opacity: 1;}.white{fill: #ffffff; opacity: 1;}.light-defaultgrey-10{fill: #212121; opacity: 0.1;}.light-defaultgrey{fill: #212121; opacity: 1;}.cls-1{opacity:0.75;}</style>
  </defs>
  <title>IconLightPowerShellProject</title>
  <g id="canvas">
    <path class="canvas" d="M16,16H0V0H16Z" />
  </g>
  <g id="level-1">
    <path class="light-lightblue" d="M9.99,9.6l-1,5L8.5,15h-7l-.49-.6,1-5L2.5,9h7Z" />
    <path class="white" d="M3.5,10.021l1.3,1.3v.707l-1.95,1.951-.708-.708,1.6-1.6L2.8,10.729ZM5,13v1H7V13Z" />
    <path class="light-defaultgrey-10" d="M14,3V5H2V3Z" />
    <path class="light-defaultgrey" d="M14.5,6H1.5L1,5.5v-3L1.5,2h13l.5.5v3ZM2,5H14V3H2Z" />
    <g class="cls-1">
      <path class="light-defaultgrey-10" d="M14.5,5.5v8H10.229l.834-4.171L9.973,8H2.143L1.5,8.528V5.5Z" />
      <path class="light-defaultgrey" d="M15,5.5v8l-.5.5H10.129l.2-1H14V6H2V8.117l-.9.739-.1.5V5.5L1.5,5h13Z" />
    </g>
  </g>
</svg>
