<svg xmlns="http://www.w3.org/2000/svg" viewBox="0 0 16 16">
  <defs>
    <style>.canvas{fill: none; opacity: 0;}.light-blue-10{fill: #005dba; opacity: 0.1;}.light-blue{fill: #005dba; opacity: 1;}.light-defaultgrey-10{fill: #212121; opacity: 0.1;}.light-defaultgrey{fill: #212121; opacity: 1;}.cls-1{opacity:0.75;}</style>
  </defs>
  <title>IconLightSymlinkFile</title>
  <g id="canvas" class="canvas">
    <path class="canvas" d="M16,16H0V0H16Z" />
  </g>
  <g id="level-1">
    <path class="light-blue-10" d="M7.5,8.5v7H.5v-7Z" />
    <path class="light-blue" d="M7.5,8H.5L0,8.5v7l.5.5h7l.5-.5v-7ZM3.323,15H1V9H7v6H3.823M6,10.5v3H5V11.707L2.354,14.354l-.708-.708L4.293,11H2.53V10H5.5Z" />
    <g class="cls-1">
      <path class="light-defaultgrey-10" d="M13.5,4.5v10H9V7H2.5V1.5h8Z" />
      <path class="light-defaultgrey" d="M14,4.5v10l-.5.5H9V14h4V5H10V2H3V7H2V1.5L2.5,1h8l.354.146,3,3Z" />
    </g>
  </g>
</svg>
