<svg xmlns="http://www.w3.org/2000/svg" viewBox="0 0 16 16">
  <defs>
    <style>.canvas{fill: none; opacity: 0;}.light-blue{fill: #005dba; opacity: 1;}</style>
  </defs>
  <title>TSFileNode</title>
  <g id="canvas">
    <path class="canvas" d="M16,16H0V0H16Z" />
  </g>
  <g id="level-1">
    <path class="light-blue" d="M8,5.09H5.773V12H4.489V5.09H2.27V4H8Zm.778,6.473V10.24a2.061,2.061,0,0,0,.423.292,3.3,3.3,0,0,0,.521.218,3.964,3.964,0,0,0,.551.138,2.975,2.975,0,0,0,.507.049,2.168,2.168,0,0,0,1.207-.27.89.89,0,0,0,.4-.783.855.855,0,0,0-.133-.478,1.392,1.392,0,0,0-.369-.37,4.031,4.031,0,0,0-.559-.321c-.214-.1-.444-.209-.688-.321q-.394-.21-.735-.426a3.23,3.23,0,0,1-.591-.478A2.03,2.03,0,0,1,8.912,6.9a1.934,1.934,0,0,1-.143-.772,1.783,1.783,0,0,1,.246-.948,2.071,2.071,0,0,1,.648-.663,2.943,2.943,0,0,1,.915-.389A4.318,4.318,0,0,1,11.625,4a4.23,4.23,0,0,1,1.77.275V5.544a2.826,2.826,0,0,0-1.7-.475,3.037,3.037,0,0,0-.569.054,1.7,1.7,0,0,0-.508.178,1.112,1.112,0,0,0-.364.318.787.787,0,0,0-.14.47.887.887,0,0,0,.108.448,1.16,1.16,0,0,0,.316.346,3.213,3.213,0,0,0,.507.3q.3.149.694.321.4.21.763.442a3.607,3.607,0,0,1,.632.513,2.238,2.238,0,0,1,.432.624,1.83,1.83,0,0,1,.159.78,1.83,1.83,0,0,1-.877,1.652,2.863,2.863,0,0,1-.926.367A5.256,5.256,0,0,1,10.821,12a4.662,4.662,0,0,1-.478-.03q-.284-.028-.581-.086a5.414,5.414,0,0,1-.561-.138A1.8,1.8,0,0,1,8.775,11.563Z" />
  </g>
</svg>
